# xmcd
#
# Track frame offsets:
#	150
#	13232
#	25650
#	38960
#	50525
#	62607
#	73820
#	87365
#	99750
#	113095
#	125242
#	136845
#	150157
#	162495
#	174980
#	188157
#	199680
#	211885
#	223737
#	235557
#	247340
#	259392
#	270917
#
# Disc length: 3766 seconds
#
# Revision: 1
# Processed by: cddbd v1.5PL3 Copyright (c) Steve Scherf et al.
# Submitted via: audiograbber 1.81.03
#
DISCID=430eb417
DTITLE=Big Bill Broonzy - Complete Recorded Works in Chronological Order Vol. 8
DYEAR=1938
DGENRE=Blues
TTITLE0=Going Back to Arkansas
TTITLE1=Rider Rider Blues
TTITLE2=Living On Easy Street
TTITLE3=Good Time Tonight
TTITLE4=Trouble and Lying Woman
TTITLE5=I Believe I'll Go Back Home
TTITLE6=Flat Foot Susie With Her Flat Yes Yes
TTITLE7=Trucking Little Woman No. 2
TTITLE8=Hell ain't But a Mile and a Quarter
TTITLE9=Don't You Lay it On Me
TTITLE10=Done Got Wise (Concert)
TTITLE11=Louise, Louise (Concert)
TTITLE12=Spreadin' Snake Blues
TTITLE13=Baby don't You Remember
TTITLE14=Whiskey and Good Time Blues
TTITLE15=Baby I Done Got Wise
TTITLE16=Preachin' the Blues
TTITLE17=Just a Dream
TTITLE18=Fightin' Little Rooster
TTITLE19=Mary Blues
TTITLE20=You can't Sell 'Em in Here
TTITLE21=Just Got to Hold You Tight (take 1)
TTITLE22=Just Got to Hold You Tight ( take 2)
EXTD=DOCD-5130  15 September 1938 to 10 February 1039
EXTT0=
EXTT1=
EXTT2=
EXTT3=
EXTT4=
EXTT5=
EXTT6=
EXTT7=
EXTT8=
EXTT9=
EXTT10=
EXTT11=
EXTT12=
EXTT13=
EXTT14=
EXTT15=
EXTT16=
EXTT17=
EXTT18=
EXTT19=
EXTT20=
EXTT21=
EXTT22=
PLAYORDER=
